<?xml version="1.0" encoding="utf-8"?>
<!-- Generator: Adobe Illustrator 19.2.0, SVG Export Plug-In . SVG Version: 6.00 Build 0)  -->
<svg version="1.1" id="Layer_1" xmlns="http://www.w3.org/2000/svg" xmlns:xlink="http://www.w3.org/1999/xlink" x="0px" y="0px"
	 viewBox="0 0 80 52" style="enable-background:new 0 0 80 52;" xml:space="preserve">
<style type="text/css">
	.st0{display:none;fill:#8C8C8C;}
	.st1{display:none;}
	.st2{display:inline;fill:#FFFFFF;}
	.st3{display:inline;}
	.st4{fill:#3B97D3;}
</style>
<rect class="st0" width="80" height="52"/>
<g class="st1">
	<polygon class="st2" points="65,30.9 55,13.9 49,24.1 37.9,5 25.4,26.4 24.7,27.6 20.7,20.8 12.8,34.4 4.9,48 12.9,48 20.7,48 
		35.1,48 36.5,48 37.9,48 55,48 62.9,48 74.9,48 	"/>
	<g class="st3">
		<polygon class="st4" points="60,26.8 67.5,46 71.1,46 		"/>
		<polygon class="st4" points="59.5,46 40.8,14.1 51.2,46 		"/>
		<polygon class="st4" points="22.3,27.5 26.6,46 33.1,46 		"/>
	</g>
</g>
<path class="st4" d="M65,30.9l-10-17l-6,10.2L37.9,5L25.4,26.4l-0.7,1.2l-4-6.8l-7.9,13.6L4.9,48h8h7.8h14.4h1.4h1.4H55h7.9h12
	L65,30.9z M26.6,46l-4.3-18.5L33.1,46H26.6z M51.2,46L40.8,14.1L59.5,46H51.2z M60,26.8L71.1,46h-3.6L60,26.8z"/>
</svg>
